<svg width="98" height="81" viewBox="0 0 98 81" fill="none" xmlns="http://www.w3.org/2000/svg">
<g id="Group">
<path id="Vector" d="M75.0312 0H22.9688C10.2835 0 0 8.49959 0 18.9844V62.0156C0 72.5004 10.2835 81 22.9688 81H75.0312C87.7165 81 98 72.5004 98 62.0156V18.9844C98 8.49959 87.7165 0 75.0312 0Z" fill="url(#paint0_radial_4_3)"/>
<path id="Vector_2" d="M75.0312 0H22.9688C10.2835 0 0 8.49959 0 18.9844V62.0156C0 72.5004 10.2835 81 22.9688 81H75.0312C87.7165 81 98 72.5004 98 62.0156V18.9844C98 8.49959 87.7165 0 75.0312 0Z" fill="url(#paint1_radial_4_3)"/>
<path id="Vector_3" d="M49.0034 8.85938C38.607 8.85938 37.302 8.89703 33.2189 9.05048C29.1435 9.20489 26.3616 9.73804 23.9277 10.5205C21.4096 11.3286 19.2738 12.4098 17.1462 14.169C15.0166 15.9279 13.7085 17.6931 12.7278 19.7735C11.7784 21.7858 11.1326 24.0861 10.9492 27.453C10.7666 30.8281 10.7188 31.907 10.7188 40.5003C10.7188 49.0936 10.7647 50.1687 10.95 53.5435C11.1375 56.912 11.7826 59.2113 12.7285 61.223C13.707 63.3043 15.0151 65.0696 17.1435 66.8282C19.2708 68.5883 21.4065 69.672 23.9227 70.4801C26.3586 71.2626 29.1408 71.7957 33.2155 71.9501C37.299 72.1036 38.6028 72.1413 48.9989 72.1413C59.3964 72.1413 60.6972 72.1036 64.7803 71.9501C68.8557 71.7957 71.6407 71.2626 74.0765 70.4801C76.5935 69.672 78.7262 68.5883 80.8531 66.8282C82.9826 65.0696 84.2903 63.3043 85.2715 61.224C86.2124 59.2113 86.8586 56.9114 87.05 53.5442C87.2334 50.1694 87.2812 49.0936 87.2812 40.5003C87.2812 31.907 87.2334 30.8287 87.05 27.4536C86.8586 24.0852 86.2124 21.7862 85.2715 19.7744C84.2903 17.6931 82.9826 15.9279 80.8531 14.169C78.7239 12.4091 76.5943 11.328 74.0742 10.5208C71.6338 9.73803 68.8504 9.20457 64.7749 9.05048C60.6915 8.89703 59.3914 8.85938 48.9916 8.85938H49.0034ZM45.5692 14.5613C46.5887 14.5601 47.726 14.5613 49.0034 14.5613C59.2249 14.5613 60.4361 14.5917 64.4725 14.7433C68.2049 14.8844 70.2308 15.3998 71.5802 15.833C73.3668 16.4063 74.6404 17.0919 75.9795 18.1997C77.3193 19.3071 78.1485 20.3617 78.8441 21.8384C79.3681 22.9521 79.9925 24.6265 80.1625 27.7115C80.3458 31.047 80.3857 32.0488 80.3857 40.493C80.3857 48.9373 80.3458 49.9393 80.1625 53.2746C79.9917 56.3595 79.3681 58.034 78.8441 59.148C78.1504 60.6247 77.3193 61.6761 75.9795 62.7829C74.6396 63.8903 73.3675 64.5757 71.5802 65.1493C70.2323 65.5844 68.2049 66.0985 64.4725 66.2397C60.4369 66.3912 59.2249 66.4241 49.0034 66.4241C38.7816 66.4241 37.57 66.3912 33.5348 66.2397C29.8023 66.0973 27.7765 65.5818 26.4259 65.1487C24.6397 64.575 23.3634 63.8897 22.0236 62.7823C20.6837 61.6749 19.8546 60.6228 19.159 59.1455C18.6349 58.0314 18.0106 56.357 17.8406 53.2721C17.6572 49.9365 17.6205 48.9348 17.6205 40.4851C17.6205 32.0358 17.6572 31.0391 17.8406 27.7036C18.0113 24.6186 18.6349 22.9442 19.159 21.8289C19.853 20.3522 20.6837 19.2976 22.024 18.1902C23.3638 17.0828 24.6397 16.3971 26.4263 15.8225C27.7757 15.3875 29.8023 14.8733 33.5348 14.7316C37.0662 14.5996 38.4348 14.5601 45.5692 14.5534V14.5613ZM69.438 19.8149C66.9018 19.8149 64.8442 21.514 64.8442 23.6106C64.8442 25.7067 66.9018 27.4074 69.438 27.4074C71.9741 27.4074 74.0317 25.7067 74.0317 23.6106C74.0317 21.5144 71.9741 19.8137 69.438 19.8137V19.8149ZM49.0034 24.2513C38.1469 24.2513 29.3445 31.5267 29.3445 40.5003C29.3445 49.4739 38.1469 56.7459 49.0034 56.7459C59.8604 56.7459 68.6597 49.4739 68.6597 40.5003C68.6597 31.527 59.8596 24.2513 49.0027 24.2513H49.0034ZM49.0034 29.9532C56.0506 29.9532 61.7641 34.675 61.7641 40.5003C61.7641 46.325 56.0506 51.0474 49.0034 51.0474C41.9559 51.0474 36.2432 46.325 36.2432 40.5003C36.2432 34.675 41.9559 29.9532 49.0034 29.9532Z" fill="white"/>
</g>
<defs>
<radialGradient id="paint0_radial_4_3" cx="0" cy="0" r="1" gradientUnits="userSpaceOnUse" gradientTransform="translate(26.0312 87.2386) rotate(-90) scale(80.277 90.3342)">
<stop stop-color="#FFDD55"/>
<stop offset="0.1" stop-color="#FFDD55"/>
<stop offset="0.5" stop-color="#FF543E"/>
<stop offset="1" stop-color="#C837AB"/>
</radialGradient>
<radialGradient id="paint1_radial_4_3" cx="0" cy="0" r="1" gradientUnits="userSpaceOnUse" gradientTransform="translate(-16.4154 5.83485) rotate(76.3865) scale(36.2034 177.383)">
<stop stop-color="#3771C8"/>
<stop offset="0.128" stop-color="#3771C8"/>
<stop offset="1" stop-color="#6600FF" stop-opacity="0"/>
</radialGradient>
</defs>
</svg>
