<svg width="56" height="48" viewBox="0 0 56 48" fill="none" xmlns="http://www.w3.org/2000/svg">
<g id="Group">
<path id="Vector" d="M43.3281 13.0417C45.041 13.0417 46.6837 12.46 47.8949 11.4247C49.106 10.3893 49.7865 8.98505 49.7865 7.52083C49.7865 6.05662 49.106 4.65237 47.8949 3.61701C46.6837 2.58166 45.041 2 43.3281 2C41.6153 2 39.9726 2.58166 38.7614 3.61701C37.5502 4.65237 36.8698 6.05662 36.8698 7.52083C36.8698 8.98505 37.5502 10.3893 38.7614 11.4247C39.9726 12.46 41.6153 13.0417 43.3281 13.0417Z" stroke="black" stroke-width="4"/>
<path id="Vector_2" d="M12.3282 14.9961L22.6654 11.9353L36.8698 17.7311L22.6654 26.7819L36.8698 34.7761L27.8385 45.0603M42.4498 20.3767L45.9141 21.9876L53.6615 15.7646M18.5915 31.3101L14.7552 35.6296L2 41.7467" stroke="black" stroke-width="4" stroke-linecap="round" stroke-linejoin="round"/>
</g>
</svg>
