<svg width="84" height="82" viewBox="0 0 84 82" fill="none" xmlns="http://www.w3.org/2000/svg">
<path id="Vector" d="M54.9066 0H29.1354C5.5986 0 0 5.4653 0 28.4007V53.5583C0 76.5306 5.5566 82 29.0934 82H54.8646C78.3972 82 84 76.5757 84 53.5993V28.4417C84 5.4653 78.4434 0 54.9066 0ZM67.8132 58.507H61.6854C59.367 58.507 58.6698 56.6743 54.5118 52.6153C50.883 49.2 49.35 48.7736 48.4302 48.7736C47.1618 48.7736 46.8132 49.1139 46.8132 50.8236V56.2028C46.8132 57.6583 46.3302 58.5111 42.4368 58.5111C38.6582 58.2632 34.9941 57.1426 31.7461 55.2415C28.4981 53.3404 25.7593 50.7132 23.7552 47.5764C18.9973 41.7954 15.6868 35.0104 14.0868 27.7611C14.0868 26.8632 14.4354 26.0514 16.1868 26.0514H22.3104C23.8854 26.0514 24.4524 26.7361 25.0698 28.3146C28.0434 36.859 33.117 44.2882 35.175 44.2882C35.9646 44.2882 36.309 43.9479 36.309 42.025V33.2264C36.0486 29.2125 33.8646 28.8722 33.8646 27.4208C33.8927 27.038 34.0724 26.6809 34.3656 26.4252C34.6589 26.1696 35.0426 26.0355 35.4354 26.0514H45.0618C46.3764 26.0514 46.8132 26.691 46.8132 28.2285V40.1021C46.8132 41.3854 47.3802 41.8118 47.775 41.8118C48.5646 41.8118 49.1736 41.3854 50.6184 39.975C53.7216 36.2807 56.257 32.1648 58.1448 27.757C58.3378 27.2275 58.7029 26.7742 59.1844 26.4663C59.666 26.1583 60.2375 26.0126 60.8118 26.0514H66.9396C68.775 26.0514 69.1656 26.9493 68.775 28.2285C66.5469 33.1011 63.7899 37.7263 60.5514 42.025C59.892 43.009 59.6274 43.5215 60.5514 44.6736C61.1604 45.5715 63.3066 47.3222 64.7514 48.9868C66.851 51.0312 68.5945 53.3966 69.9132 55.9896C70.4382 57.6542 69.5604 58.507 67.8132 58.507Z" fill="#699BF7"/>
</svg>
