<svg width="88" height="68" viewBox="0 0 88 68" fill="none" xmlns="http://www.w3.org/2000/svg">
<path id="Vector" d="M78.991 16.9281C79.0446 17.6662 79.0446 18.4037 79.0446 19.1484C79.0446 41.8351 60.8829 68 27.6746 68V67.9869C17.8641 68 8.25682 65.3277 0 60.2891C1.42656 60.4526 2.86 60.5343 4.29688 60.5376C12.428 60.5438 20.3253 57.9503 26.7197 53.1739C22.9522 53.1062 19.3011 51.9206 16.2769 49.7828C13.2527 47.645 11.0065 44.6619 9.85256 41.2506C12.5592 41.7475 15.3477 41.6448 18.0042 40.9544C9.581 39.3363 3.52138 32.2988 3.52138 24.1257V23.908C6.03234 25.2383 8.84266 25.9753 11.7157 26.0571C3.78125 21.015 1.33719 10.9786 6.12769 3.13237C10.6603 8.43639 16.3155 12.7744 22.7259 15.8646C29.1363 18.9548 36.1586 20.7281 43.3366 21.0692C42.6211 18.1394 42.727 15.0823 43.6437 12.2037C44.5604 9.32499 46.2557 6.72562 48.5602 4.66552C55.8319 -1.83517 67.2684 -1.50174 74.1036 5.41019C78.1469 4.65096 82.0243 3.2412 85.569 1.24159C84.2211 5.21712 81.4008 8.59179 77.6325 10.738C81.2114 10.3367 84.7064 9.42533 88 8.03452C85.5771 11.485 82.5263 14.4967 78.991 16.9281Z" fill="#1D9BF0"/>
</svg>
